<?xml version="1.0" encoding="utf-8"?>
<!-- Generator: Adobe Illustrator 18.1.1, SVG Export Plug-In . SVG Version: 6.00 Build 0)  -->
<svg version="1.1" id="Layer_1" xmlns="http://www.w3.org/2000/svg" xmlns:xlink="http://www.w3.org/1999/xlink" x="0px" y="0px"
	 viewBox="0 0 595.3 841.9" enable-background="new 0 0 595.3 841.9" xml:space="preserve">
<g>
	<polygon fill="#373A3B" points="353.9,444.8 580.9,444.8 580.9,361.7 353.9,361.7 353.9,299.7 258.4,402.6 353.9,506.8 	"/>
	<polygon fill="#373A3B" points="236.1,728.8 29,629.6 29,176.9 236.1,274.9 	"/>
	<g>
		<path fill="#373A3B" d="M396.1,648.2H29c-9.9,0-18.6-8.7-18.6-18.6V176.9c0-9.9,8.7-18.6,18.6-18.6h367.1
			c9.9,0,18.6,8.7,18.6,18.6V291c0,9.9-8.7,18.6-18.6,18.6c-9.9,0-18.6-8.7-18.6-18.6v-96.7H47.6v417.9h329.9v-95.5
			c0-9.9,8.7-18.6,18.6-18.6c9.9,0,18.6,8.7,18.6,18.6v112.9C413.5,639.5,406,648.2,396.1,648.2z"/>
	</g>
</g>
</svg>
